<?xml version="1.0" encoding="UTF-8"?>
<svg version="1.1" xmlns="http://www.w3.org/2000/svg" width="679" height="698">
<path d="M0 0 C162.03 0 324.06 0 491 0 C491 117.81 491 235.62 491 357 C421.04 357 351.08 357 279 357 C279 280.77 279 204.54 279 126 C301.77 126 324.54 126 348 126 C348 179.46 348 232.92 348 288 C372.42 288 396.84 288 422 288 C422 215.73 422 143.46 422 69 C305.51 69 189.02 69 69 69 C69 164.04 69 259.08 69 357 C46.23 357 23.46 357 0 357 C0 239.19 0 121.38 0 0 Z " fill="#FEFEFE" transform="translate(104,135)"/>
<path d="M0 0 C22.77 0 45.54 0 69 0 C69 76.23 69 152.46 69 231 C46.23 231 23.46 231 0 231 C0 154.77 0 78.54 0 0 Z " fill="#FEFEFE" transform="translate(243,261)"/>
<path d="M0 0 C3.63 0 7.26 0 11 0 C15.03330168 7.66770539 18.51254266 15.434843 21.72680664 23.47436523 C22.93479016 26.99634435 22.93479016 26.99634435 25 30 C28.96 20.1 32.92 10.2 37 0 C40.63 0 44.26 0 48 0 C49 1 49 1 49.12025452 2.86659241 C49.11803391 3.68155685 49.11581329 4.4965213 49.11352539 5.33618164 C49.11344986 6.2570607 49.11337433 7.17793976 49.11329651 8.12672424 C49.10813522 9.12775681 49.10297394 10.12878937 49.09765625 11.16015625 C49.0962413 12.17975937 49.09482635 13.19936249 49.09336853 14.24986267 C49.08775097 17.52077107 49.0751955 20.79161213 49.0625 24.0625 C49.05748726 26.27408756 49.05292396 28.48567618 49.04882812 30.69726562 C49.03777583 36.13153654 49.02049944 41.56575684 49 47 C45.7 47 42.4 47 39 47 C38.67 39.41 38.34 31.82 38 24 C37.04287109 26.36478516 37.04287109 26.36478516 36.06640625 28.77734375 C35.23190351 30.83078309 34.39726088 32.88416558 33.5625 34.9375 C33.14162109 35.97841797 32.72074219 37.01933594 32.28710938 38.09179688 C31.68286133 39.57583008 31.68286133 39.57583008 31.06640625 41.08984375 C30.69459229 42.00628662 30.32277832 42.92272949 29.93969727 43.86694336 C29 46 29 46 28 47 C25.36 47 22.72 47 20 47 C15.545 35.615 15.545 35.615 11 24 C10.71074059 31.19498801 10.71074059 31.19498801 10.43188477 38.39038086 C10.39377686 39.28120361 10.35566895 40.17202637 10.31640625 41.08984375 C10.26141968 42.46450806 10.26141968 42.46450806 10.20532227 43.86694336 C10 46 10 46 9 47 C6.03 47 3.06 47 0 47 C0 31.49 0 15.98 0 0 Z " fill="#FDFDFD" transform="translate(205,549)"/>
<path d="M0 0 C2.97 0 5.94 0 9 0 C9 2.64 9 5.28 9 8 C11.31 8 13.62 8 16 8 C16.04241723 10.33294775 16.04092937 12.66702567 16 15 C15.67 15.33 15.34 15.66 15 16 C13.02 16 11.04 16 9 16 C9.33 22.27 9.66 28.54 10 35 C11.65 35 13.3 35 15 35 C15.226875 33.7625 15.45375 32.525 15.6875 31.25 C16.45334672 28.30122963 16.98848527 27.01367374 19 24.625 C24.6179689 21.58193351 30.6692734 20.86434157 37 21 C36.505 19.02 36.505 19.02 36 17 C33.19954954 16.14349347 33.19954954 16.14349347 30 16 C29.38125 16.66 28.7625 17.32 28.125 18 C26 20 26 20 23.9765625 20.046875 C21.97178527 19.77957137 19.98324301 19.3966486 18 19 C17 16 17 16 18.4375 13 C22.4250352 8.33166611 26.51066511 7.26671445 32.5 6.625 C36.60282173 7.06458804 40.48070214 7.75836028 44 10 C46.91680969 13.94924148 47.35955785 16.75227662 47.29296875 21.61328125 C47.2784668 23.4840332 47.2784668 23.4840332 47.26367188 25.39257812 C47.23853516 26.68615234 47.21339844 27.97972656 47.1875 29.3125 C47.16719727 31.28186523 47.16719727 31.28186523 47.14648438 33.29101562 C47.11117443 36.52776077 47.0618528 39.76367105 47 43 C44.03 43 41.06 43 38 43 C38 42.34 38 41.68 38 41 C37.38125 41.495 36.7625 41.99 36.125 42.5 C31.73505719 44.60717255 27.79433979 44.61405337 23 44 C19.9375 42.5 19.9375 42.5 18 41 C17.67 41 17.34 41 17 41 C16.62875 41.495 16.2575 41.99 15.875 42.5 C12.94151915 44.84678468 10.65010151 44.37119676 7 44 C1.34883721 41.69767442 1.34883721 41.69767442 0 39 C-0.08449628 37.2595583 -0.10723024 35.51590278 -0.09765625 33.7734375 C-0.09443359 32.7421875 -0.09121094 31.7109375 -0.08789062 30.6484375 C-0.07951172 29.56820312 -0.07113281 28.48796875 -0.0625 27.375 C-0.05798828 26.28703125 -0.05347656 25.1990625 -0.04882812 24.078125 C-0.03701776 21.38536211 -0.02054778 18.69270812 0 16 C-1.65 16 -3.3 16 -5 16 C-5 13.36 -5 10.72 -5 8 C-3.35 8 -1.7 8 0 8 C0 5.36 0 2.72 0 0 Z M27 30 C26.61781233 31.65614657 26.28604898 33.32457024 26 35 C27.16377902 36.38142556 27.16377902 36.38142556 30.375 36.25 C33.86150859 36.29040619 33.86150859 36.29040619 35.9375 34.8125 C37.32851983 32.43958382 37.21917317 30.70313576 37 28 C33.38970831 28 30.44193324 28.96092582 27 30 Z " fill="#FBFBFB" transform="translate(331,553)"/>
<path d="M0 0 C25.55251479 0 25.55251479 0 32.49609375 5.4453125 C37.25039331 10.36014685 38.7312636 16.57361086 39.25 23.1875 C38.75692901 30.70683261 36.81212857 36.77144733 31.890625 42.52734375 C22.08878911 50.16224484 12.88558914 47 0 47 C0 31.49 0 15.98 0 0 Z M10 9 C10 18.57 10 28.14 10 38 C20.11685355 38.93917689 20.11685355 38.93917689 24.5625 35.875 C28.46653312 31.27024299 29.21622621 27.85296671 28.8125 21.9375 C28.27566363 17.96491088 27.82168454 15.0037287 25 12 C19.78020106 9.1014209 16.16414222 9 10 9 Z " fill="#FCFCFC" transform="translate(382,549)"/>
<path d="M0 0 C2.97 0 5.94 0 9 0 C10.81115956 1.81115956 10.38199448 4.61278227 10.5625 7.0625 C10.64628906 8.16722656 10.73007812 9.27195312 10.81640625 10.41015625 C10.87699219 11.26480469 10.93757813 12.11945312 11 13 C11.55816406 12.66742187 12.11632812 12.33484375 12.69140625 11.9921875 C16.75386859 10.2462223 20.7737054 11.0600611 25 12 C29.34607686 14.49668245 31.21451478 17.35773842 33 22 C34.45861515 28.73206995 34.40965112 35.74148929 30.92578125 41.8984375 C28.40093037 45.16401751 26.0021813 47.06926016 22 48 C18.10576963 48.42836534 14.9640838 48.57845028 11.5 46.5 C11.005 46.005 10.51 45.51 10 45 C9.67 45.66 9.34 46.32 9 47 C6.03 47 3.06 47 0 47 C0 31.49 0 15.98 0 0 Z M11.1875 21 C8.95946882 24.75247356 8.52104653 28.8019457 9.4375 33.0078125 C10.55772408 36.05023926 11.69672882 37.79249866 14.375 39.625 C17.04609497 40.20343682 17.04609497 40.20343682 19.6875 39.125 C22.30050502 36.72386025 23.22654381 34.67978097 23.921875 31.203125 C24.06178885 27.25755434 22.72976868 24.52131481 21 21 C17.75544337 19.37772169 14.40248788 19.22621359 11.1875 21 Z " fill="#FCFCFC" transform="translate(293,549)"/>
<path d="M0 0 C3.88620403 2.96835684 5.65504934 6.47479713 7.0546875 11.0625 C7.32068444 13.82591268 7.24719799 16.27109784 7.0546875 19.0625 C6.0546875 20.0625 6.0546875 20.0625 3.92163086 20.17602539 C3.00518799 20.17078857 2.08874512 20.16555176 1.14453125 20.16015625 C0.15517578 20.15693359 -0.83417969 20.15371094 -1.85351562 20.15039062 C-2.89443359 20.14201172 -3.93535156 20.13363281 -5.0078125 20.125 C-6.05259766 20.12048828 -7.09738281 20.11597656 -8.17382812 20.11132812 C-10.7643791 20.09949913 -13.35481809 20.08301689 -15.9453125 20.0625 C-14.19076865 23.24484105 -14.19076865 23.24484105 -11.9453125 26.0625 C-9.02922252 26.39611919 -9.02922252 26.39611919 -5.9453125 26.0625 C-5.48253906 25.56621094 -5.01976562 25.06992187 -4.54296875 24.55859375 C-2.9453125 23.0625 -2.9453125 23.0625 -0.68359375 22.76953125 C0.11691406 22.80433594 0.91742188 22.83914063 1.7421875 22.875 C2.55042969 22.90207031 3.35867188 22.92914062 4.19140625 22.95703125 C4.80628906 22.99183594 5.42117188 23.02664063 6.0546875 23.0625 C6.4921875 25.1875 6.4921875 25.1875 6.0546875 28.0625 C2.54227545 32.00924257 -1.00665101 34.73017964 -6.36328125 35.3359375 C-12.30970717 35.55400107 -16.27212107 34.99469614 -21.2890625 31.7421875 C-25.53310581 27.43808697 -26.35892209 22.93115715 -26.3203125 17.0625 C-26.32804687 15.886875 -26.33578125 14.71125 -26.34375 13.5 C-25.76239005 8.48434552 -24.01509147 4.42818677 -20.0078125 1.25 C-14.23262122 -2.87513663 -6.46991475 -3.11803121 0 0 Z M-13.8203125 7.8125 C-16.17418701 9.78902862 -16.17418701 9.78902862 -15.9453125 12.0625 C-11.6553125 12.0625 -7.3653125 12.0625 -2.9453125 12.0625 C-4.52522767 7.93809132 -4.52522767 7.93809132 -7.7578125 6.5625 C-11.04014852 5.6959706 -11.04014852 5.6959706 -13.8203125 7.8125 Z " fill="#FCFCFC" transform="translate(447.9453125,561.9375)"/>
<path d="M0 0 C3.3 0 6.6 0 10 0 C10.33 8.58 10.66 17.16 11 26 C16.51877068 26.53504942 16.51877068 26.53504942 18.84301758 24.83276367 C20.3968245 22.37139448 20.43154303 20.5781423 20.51171875 17.67578125 C20.54716797 16.64775391 20.58261719 15.61972656 20.61914062 14.56054688 C20.64169922 13.48869141 20.66425781 12.41683594 20.6875 11.3125 C20.72166016 10.22904297 20.75582031 9.14558594 20.79101562 8.02929688 C20.8735375 5.35323023 20.93844386 2.67663097 21 0 C24.3 0 27.6 0 31 0 C31 11.55 31 23.1 31 35 C28.03 35 25.06 35 22 35 C21.67 34.34 21.34 33.68 21 33 C20.154375 33.495 19.30875 33.99 18.4375 34.5 C14.51916938 36.209817 12.23186637 36.5289833 8 36 C4.00603118 33.88997874 1.58058532 32.24353791 0 28 C-0.22705078 24.97558594 -0.22705078 24.97558594 -0.1953125 21.484375 C-0.18886719 20.23398437 -0.18242187 18.98359375 -0.17578125 17.6953125 C-0.15902344 16.39335938 -0.14226562 15.09140625 -0.125 13.75 C-0.11597656 12.43257812 -0.10695313 11.11515625 -0.09765625 9.7578125 C-0.07408533 6.50502538 -0.04118022 3.25260411 0 0 Z " fill="#FCFCFC" transform="translate(258,561)"/>
<path d="M0 0 C3.63 0 7.26 0 11 0 C12.98 6.6 14.96 13.2 17 20 C19.73472115 13.39894894 22.03715964 6.86994125 24 0 C27.63 0 31.26 0 35 0 C33.61441762 4.18155785 32.22682373 8.36244124 30.83740234 12.54272461 C30.36550117 13.96344147 29.89413985 15.38433777 29.42333984 16.80541992 C28.74460116 18.85383319 28.0638919 20.90158274 27.3828125 22.94921875 C26.97434082 24.17987061 26.56586914 25.41052246 26.14501953 26.6784668 C25.178601 29.48190476 24.10129887 32.24675283 23 35 C19.37 35 15.74 35 12 35 C9.1250867 27.89689214 6.38118801 20.75928645 3.75 13.5625 C3.38648438 12.58345703 3.02296875 11.60441406 2.6484375 10.59570312 C2.30554688 9.65791016 1.96265625 8.72011719 1.609375 7.75390625 C1.29967773 6.91158447 0.98998047 6.0692627 0.67089844 5.20141602 C0 3 0 3 0 0 Z " fill="#FCFCFC" transform="translate(453,561)"/>
</svg>
